HIERARCHY
ROOT hip
{
  OFFSET 0 0 0
  CHANNELS 6 Xposition Yposition Zposition Zrotation Yrotation Xrotation
  JOINT abdomen
  {
    OFFSET 0 20.6881 -0.73152
    CHANNELS 3 Zrotation Xrotation Yrotation
    JOINT chest
    {
      OFFSET 0 11.7043 -0.48768
      CHANNELS 3 Zrotation Xrotation Yrotation
      JOINT neck
      {
        OFFSET 0 22.1894 -2.19456
        CHANNELS 3 Zrotation Xrotation Yrotation
        JOINT head
        {
          OFFSET -0.24384 7.07133 1.2192
          CHANNELS 3 Zrotation Xrotation Yrotation
          JOINT leftEye
          {
            OFFSET 4.14528 8.04674 8.04672
            CHANNELS 3 Zrotation Xrotation Yrotation
            End Site
            {
              OFFSET 1 0 0
            }
          }
          JOINT rightEye
          {
            OFFSET -3.6576 8.04674 8.04672
            CHANNELS 3 Zrotation Xrotation Yrotation
            End Site
            {
              OFFSET 1 0 0
            }
          }
        }
      }
      JOINT rCollar
      {
        OFFSET -2.68224 19.2634 -4.8768
        CHANNELS 3 Zrotation Xrotation Yrotation
        JOINT rShldr
        {
          OFFSET -8.77824 -1.95073 1.46304
          CHANNELS 3 Zrotation Xrotation Yrotation
          JOINT rForeArm
          {
            OFFSET -28.1742 -1.7115 0.48768
            CHANNELS 3 Zrotation Xrotation Yrotation
            JOINT rHand
            {
              OFFSET -22.5879 0.773209 7.07136
              CHANNELS 3 Zrotation Xrotation Yrotation
              JOINT rThumb1
              {
                OFFSET -1.2192 -0.487915 3.41376
                CHANNELS 3 Zrotation Xrotation Yrotation
                JOINT rThumb2
                {
                  OFFSET -3.37035 -0.52449 3.41376
                  CHANNELS 3 Zrotation Xrotation Yrotation
                  End Site
                  {
                    OFFSET -1.78271 -1.18214 1.43049
                  }
                }
              }
              JOINT rIndex1
              {
                OFFSET -7.75947 0.938293 5.60832
                CHANNELS 3 Zrotation Xrotation Yrotation
                JOINT rIndex2
                {
                  OFFSET -2.54057 -0.884171 1.56538
                  CHANNELS 3 Zrotation Xrotation Yrotation
                  End Site
                  {
                    OFFSET -1.62519 -0.234802 1.16502
                  }
                }
              }
              JOINT rMid1
              {
                OFFSET -8.24714 1.18213 3.41376
                CHANNELS 3 Zrotation Xrotation Yrotation
                JOINT rMid2
                {
                  OFFSET -3.10165 -0.590103 1.0647
                  CHANNELS 3 Zrotation Xrotation Yrotation
                  End Site
                  {
                    OFFSET -2.48547 -0.328903 0.83742
                  }
                }
              }
              JOINT rRing1
              {
                OFFSET -8.82822 0.546677 1.51678
                CHANNELS 3 Zrotation Xrotation Yrotation
                JOINT rRing2
                {
                  OFFSET -2.60934 -0.819778 -0.0198488
                  CHANNELS 3 Zrotation Xrotation Yrotation
                  End Site
                  {
                    OFFSET -2.33842 -0.294052 0.168128
                  }
                }
              }
              JOINT rPinky1
              {
                OFFSET -8.27202 -0.0477905 -0.4584
                CHANNELS 3 Zrotation Xrotation Yrotation
                JOINT rPinky2
                {
                  OFFSET -1.82734 -0.647385 -0.700984
                  CHANNELS 3 Zrotation Xrotation Yrotation
                  End Site
                  {
                    OFFSET -1.69225 -0.51767 -0.607171
                  }
                }
              }
            }
          }
        }
      }
      JOINT lCollar
      {
        OFFSET 2.68224 19.2634 -4.8768
        CHANNELS 3 Zrotation Xrotation Yrotation
        JOINT lShldr
        {
          OFFSET 8.77824 -1.95073 1.46304
          CHANNELS 3 Zrotation Xrotation Yrotation
          JOINT lForeArm
          {
            OFFSET 28.1742 -1.7115 0.48768
            CHANNELS 3 Zrotation Xrotation Yrotation
            JOINT lHand
            {
              OFFSET 22.5879 0.773209 7.07136
              CHANNELS 3 Zrotation Xrotation Yrotation
              JOINT lThumb1
              {
                OFFSET 1.2192 -0.487915 3.41376
                CHANNELS 3 Zrotation Xrotation Yrotation
                JOINT lThumb2
                {
                  OFFSET 3.37035 -0.52449 3.41376
                  CHANNELS 3 Zrotation Xrotation Yrotation
                  End Site
                  {
                    OFFSET 1.78271 -1.18214 1.43049
                  }
                }
              }
              JOINT lIndex1
              {
                OFFSET 7.75947 0.938293 5.60832
                CHANNELS 3 Zrotation Xrotation Yrotation
                JOINT lIndex2
                {
                  OFFSET 2.54057 -0.884171 1.56538
                  CHANNELS 3 Zrotation Xrotation Yrotation
                  End Site
                  {
                    OFFSET 1.62519 -0.234802 1.16502
                  }
                }
              }
              JOINT lMid1
              {
                OFFSET 8.24714 1.18213 3.41376
                CHANNELS 3 Zrotation Xrotation Yrotation
                JOINT lMid2
                {
                  OFFSET 3.10165 -0.590103 1.0647
                  CHANNELS 3 Zrotation Xrotation Yrotation
                  End Site
                  {
                    OFFSET 2.48547 -0.328903 0.83742
                  }
                }
              }
              JOINT lRing1
              {
                OFFSET 8.82822 0.546677 1.51678
                CHANNELS 3 Zrotation Xrotation Yrotation
                JOINT lRing2
                {
                  OFFSET 2.60934 -0.819778 -0.0198488
                  CHANNELS 3 Zrotation Xrotation Yrotation
                  End Site
                  {
                    OFFSET 2.33842 -0.294052 0.168128
                  }
                }
              }
              JOINT lPinky1
              {
                OFFSET 8.27202 -0.0477905 -0.4584
                CHANNELS 3 Zrotation Xrotation Yrotation
                JOINT lPinky2
                {
                  OFFSET 1.82734 -0.647385 -0.700984
                  CHANNELS 3 Zrotation Xrotation Yrotation
                  End Site
                  {
                    OFFSET 1.69225 -0.51767 -0.607171
                  }
                }
              }
            }
          }
        }
      }
    }
  }
  JOINT rButtock
  {
    OFFSET -8.77824 4.35084 1.2192
    CHANNELS 3 Zrotation Xrotation Yrotation
    JOINT rThigh
    {
      OFFSET 0 -1.70687 -2.19456
      CHANNELS 3 Zrotation Xrotation Yrotation
      JOINT rShin
      {
        OFFSET 0 -36.8199 0.73152
        CHANNELS 3 Zrotation Xrotation Yrotation
        JOINT rFoot
        {
          OFFSET 0.73152 -45.1104 -5.12064
          CHANNELS 3 Zrotation Xrotation Yrotation
          End Site
          {
            OFFSET -1.1221 -3.69964 12.103
          }
        }
      }
    }
  }
  JOINT lButtock
  {
    OFFSET 8.77824 4.35084 1.2192
    CHANNELS 3 Zrotation Xrotation Yrotation
    JOINT lThigh
    {
      OFFSET 0 -1.70687 -2.19456
      CHANNELS 3 Zrotation Xrotation Yrotation
      JOINT lShin
      {
        OFFSET 0 -36.8199 0.73152
        CHANNELS 3 Zrotation Xrotation Yrotation
        JOINT lFoot
        {
          OFFSET -0.73152 -45.1104 -5.12064
          CHANNELS 3 Zrotation Xrotation Yrotation
          End Site
          {
            OFFSET 1.1221 -3.69964 12.103
          }
        }
      }
    }
  }
}
MOTION
Frames:	6
Frame Time:	0.00833333
-192.47 82.0934 13.1569 0.0 0.0 0.0 1.92991 -0.00172162 0.0523833 0.532089 0.00507157 0.0921237 -4.74842e-14 7.95139e-16 4.72114e-16 -1.41727e-13 3.18055e-15 1.43808e-15 -0.0 0.0 0.0 -0.0 0.0 0.0 -2.3458e-14 1.22299e-16 4.47265e-16 -4.99568e-13 2.50966e-15 3.97569e-15 -8.61587e-12 2.66193e-12 1.74931e-13 -9.85889e-11 -2.10488e-12 7.95139e-13 -2.32569e-10 1.2103e-12 2.14051e-12 -4.01647e-10 2.08962e-12 3.72284e-12 -2.32568e-10 1.2098e-12 2.13415e-12 7.73091 5.47488 0.417314 -2.3257e-10 1.2098e-12 2.15005e-12 2.90554 0.965183 0.102902 -2.3257e-10 1.2101e-12 2.15165e-12 10.2786 0.731801 0.0259123 -2.32577e-10 1.21259e-12 2.16914e-12 2.22167 -0.733487 -0.20892 -2.38543e-14 1.2424e-16 -4.96962e-17 -5.01011e-13 2.71465e-15 2.38542e-15 -8.61533e-12 -2.4858e-12 1.65389e-13 -9.8595e-11 3.05604e-12 8.30125e-13 -2.32572e-10 1.23507e-12 2.15642e-12 -4.01634e-10 2.13097e-12 3.71727e-12 -2.32574e-10 1.23445e-12 2.16914e-12 -7.73091 5.47488 -0.417314 -2.32571e-10 1.23475e-12 2.15005e-12 -2.90554 0.965183 -0.102902 -2.32574e-10 1.23495e-12 2.14528e-12 -10.2786 0.731801 -0.0259123 -2.32564e-10 1.23883e-12 2.13097e-12 -2.22167 -0.733487 0.20892 -2.03217e-16 0.0 -3.88251e-19 1.95903 -7.26121 -0.191989 0.00412369 7.58538 0.107091 -0.520811 -0.330711 0.0522745 2.03217e-16 0.0 3.88251e-19 0.976235 -1.92613 0.000877243 0.00899041 -2.0786 0.0740915 0.488344 3.99808 -0.136807
-186.139 76.0007 1.62325 109.163 78.8309 112.313 -6.24619 4.40961 -1.74842 1.59976 -1.34537 -0.729822 0.382112 -4.5399 0.700177 0.469629 -0.874758 1.18085 -0.0 0.0 0.0 -0.0 0.0 0.0 -1.36708e-13 6.13397e-13 -5.77924e-14 21.2748 14.9036 -11.4879 -20.9989 -18.8123 15.1247 0.0975772 -6.93966 -0.949677 4.37824e-10 -2.3816e-10 1.62779e-10 7.50393e-10 -4.16548e-10 2.9499e-10 4.37825e-10 -2.3816e-10 1.62775e-10 7.73091 5.47488 0.417314 4.37823e-10 -2.3816e-10 1.62786e-10 2.90554 0.965183 0.102902 4.37825e-10 -2.3816e-10 1.62787e-10 10.2786 0.731801 0.0259123 4.37818e-10 -2.38158e-10 1.62801e-10 2.22167 -0.733487 -0.20892 -1.37022e-13 6.13399e-13 -5.8193e-14 -18.4687 12.6877 -4.77186 23.617 -21.4874 -14.7742 -0.0182993 -3.02468 0.423017 4.46654e-11 1.651e-09 -1.5324e-09 8.78076e-11 2.85261e-09 -2.64368e-09 4.46639e-11 1.65101e-09 -1.53238e-09 -7.73091 5.47488 -0.417314 4.46681e-11 1.651e-09 -1.5324e-09 -2.90554 0.965183 -0.102902 4.46621e-11 1.651e-09 -1.5324e-09 -10.2786 0.731801 -0.0259123 4.46727e-11 1.651e-09 -1.53241e-09 -2.22167 -0.733487 0.20892 -2.03217e-16 0.0 -3.88251e-19 -5.29225 -16.0549 -3.79215 24.3354 28.1625 5.68371 -24.9277 -34.7013 -22.9096 2.03217e-16 0.0 3.88251e-19 -5.57215 -1.4004 -0.294653 -0.476995 8.54694 -0.537933 0.708758 -5.14361 -0.660011
-183.436 76.687 1.44244 112.439 78.3049 115.873 -14.647 9.0667 -3.64161 2.64065 -2.77503 -1.59398 0.89213 -9.34178 1.43715 1.02878 -1.8209 2.40416 -0.0 0.0 0.0 -0.0 0.0 0.0 -2.60598e-13 1.27647e-12 -1.22597e-13 50.8489 28.5454 -26.0928 -31.0442 -34.0167 36.3421 -0.0565268 -14.2551 -1.99907 1.19008e-09 -5.02024e-10 3.33437e-10 2.0433e-09 -8.78195e-10 6.05404e-10 1.19009e-09 -5.02023e-10 3.33435e-10 7.73091 5.47488 0.417314 1.19008e-09 -5.02023e-10 3.33441e-10 2.90554 0.965183 0.102902 1.19009e-09 -5.02022e-10 3.33442e-10 10.2786 0.731801 0.0259123 1.19008e-09 -5.02021e-10 3.33452e-10 2.22167 -0.733487 -0.20892 -2.60825e-13 1.27647e-12 -1.22896e-13 -35.4643 25.756 -10.6494 34.1185 -38.91 -37.4871 0.0112259 -6.17823 0.868091 3.52167e-10 3.5427e-09 -3.28662e-09 6.31193e-10 6.12127e-09 -5.67014e-09 3.52166e-10 3.5427e-09 -3.2866e-09 -7.73091 5.47488 -0.417314 3.52171e-10 3.5427e-09 -3.28662e-09 -2.90554 0.965183 -0.102902 3.52161e-10 3.5427e-09 -3.28662e-09 -10.2786 0.731801 -0.0259123 3.52174e-10 3.5427e-09 -3.28663e-09 -2.22167 -0.733487 0.20892 -2.03217e-16 0.0 -3.88251e-19 -14.3516 -25.045 -8.06829 44.6515 48.9801 15.9911 -87.7306 -51.4396 -71.1937 2.03217e-16 0.0 3.88251e-19 -12.5722 -1.00592 -0.604087 -0.740945 19.9917 -1.26432 0.753922 -15.1251 -1.26447
-180.59 77.2933 1.32293 113.892 77.9781 117.608 -21.7488 13.18 -5.47924 3.61866 -4.04311 -2.37903 1.48732 -13.6114 2.15448 1.51708 -2.61981 3.54584 -0.0 0.0 0.0 -0.0 0.0 0.0 -3.63207e-13 1.83995e-12 -1.74272e-13 84.1035 36.6596 -43.1732 -30.1452 -38.5625 60.5191 -0.437992 -20.7953 -3.02541 1.77861e-09 -7.16901e-10 4.84057e-10 3.05447e-09 -1.25382e-09 8.77523e-10 1.77861e-09 -7.169e-10 4.84057e-10 7.73091 5.47488 0.417314 1.77861e-09 -7.16901e-10 4.84058e-10 2.90554 0.965183 0.102902 1.77861e-09 -7.169e-10 4.84059e-10 10.2786 0.731801 0.0259123 1.77861e-09 -7.16898e-10 4.84066e-10 2.22167 -0.733487 -0.20892 -3.63359e-13 1.83995e-12 -1.7448e-13 -47.8075 36.8707 -17.5579 30.9001 -43.6298 -65.4575 0.0805231 -9.07204 1.28334 5.99141e-10 4.95054e-09 -4.6015e-09 1.06669e-09 8.55358e-09 -7.93848e-09 5.99141e-10 4.95055e-09 -4.60148e-09 -7.73091 5.47488 -0.417314 5.99146e-10 4.95054e-09 -4.60149e-09 -2.90554 0.965183 -0.102902 5.99133e-10 4.95054e-09 -4.60149e-09 -10.2786 0.731801 -0.0259123 5.99147e-10 4.95054e-09 -4.6015e-09 -2.22167 -0.733487 0.20892 -2.03217e-16 0.0 -3.88251e-19 -23.6665 -33.0977 -12.6257 46.428 65.0308 37.2807 -146.998 -31.5762 -103.029 2.03217e-16 0.0 3.88251e-19 -18.6527 -0.348964 -0.885464 -0.684954 29.7839 -2.00949 0.610077 -23.4171 -1.85167
-177.769 78.019 1.22638 115.619 77.7712 119.453 -26.177 15.9778 -7.06107 4.52072 -4.91014 -2.96125 2.06538 -16.5574 2.77432 1.75079 -3.05472 4.48008 -0.0 0.0 0.0 -0.0 0.0 0.0 -4.12611e-13 2.15443e-12 -1.93119e-13 110.641 38.5491 -57.3303 -28.4322 -35.4105 76.0259 -0.864066 -25.4195 -3.82977 1.9578e-09 -8.09314e-10 5.84583e-10 3.36134e-09 -1.41441e-09 1.05391e-09 1.9578e-09 -8.09313e-10 5.84583e-10 7.73091 5.47488 0.417314 1.9578e-09 -8.09314e-10 5.84583e-10 2.90554 0.965183 0.102902 1.9578e-09 -8.09312e-10 5.84582e-10 10.2786 0.731801 0.0259123 1.9578e-09 -8.0931e-10 5.84586e-10 2.22167 -0.733487 -0.20892 -4.1272e-13 2.15443e-12 -1.93268e-13 -54.2015 44.1971 -24.0613 28.1634 -39.4433 -82.9299 0.159737 -11.3182 1.6119 6.94795e-10 5.14874e-09 -4.81803e-09 1.23247e-09 8.89501e-09 -8.31155e-09 6.94796e-10 5.14876e-09 -4.81802e-09 -7.73091 5.47488 -0.417314 6.94801e-10 5.14874e-09 -4.81803e-09 -2.90554 0.965183 -0.102902 6.94787e-10 5.14874e-09 -4.81803e-09 -10.2786 0.731801 -0.0259123 6.94801e-10 5.14874e-09 -4.81803e-09 -2.22167 -0.733487 0.20892 -2.03217e-16 0.0 -3.88251e-19 -30.8913 -39.2791 -16.5769 22.3476 72.1727 69.7072 175.16 -5.59896 -95.5184 2.03217e-16 0.0 3.88251e-19 -22.4372 0.964076 -1.09712 -0.468078 35.4614 -2.51587 0.450782 -27.4965 -2.21586
-175.001 78.7923 1.17674 116.872 77.6892 120.801 -27.066 16.9782 -8.24579 5.38273 -5.22783 -3.26371 2.51043 -17.6465 3.23289 1.5776 -2.98116 5.14214 -0.0 0.0 0.0 -0.0 0.0 0.0 -3.85734e-13 2.14004e-12 -1.60921e-13 121.79 37.7222 -64.1038 -28.3418 -33.0533 81.0684 -1.08619 -27.404 -4.19975 1.48442e-09 -7.23001e-10 6.6741e-10 2.54431e-09 -1.26054e-09 1.1847e-09 1.48442e-09 -7.23001e-10 6.67409e-10 7.73091 5.47488 0.417314 1.48441e-09 -7.23002e-10 6.67412e-10 2.90554 0.965183 0.102902 1.48442e-09 -7.23e-10 6.67407e-10 10.2786 0.731801 0.0259123 1.48442e-09 -7.22997e-10 6.6741e-10 2.22167 -0.733487 -0.20892 -3.85855e-13 2.14004e-12 -1.61058e-13 -56.0137 47.2143 -27.3204 28.0523 -36.7881 -88.6934 0.213084 -12.6783 1.81343 5.30554e-10 3.26929e-09 -3.13721e-09 9.34334e-10 5.64483e-09 -5.41052e-09 5.30553e-10 3.2693e-09 -3.13719e-09 -7.73091 5.47488 -0.417314 5.30558e-10 3.26929e-09 -3.13721e-09 -2.90554 0.965183 -0.102902 5.30545e-10 3.26929e-09 -3.13721e-09 -10.2786 0.731801 -0.0259123 5.30559e-10 3.26929e-09 -3.13721e-09 -2.22167 -0.733487 0.20892 -2.03217e-16 0.0 -3.88251e-19 -33.7164 -43.5404 -18.877 -11.9181 75.3378 91.2714 135.643 18.4572 -63.2386 2.03217e-16 0.0 3.88251e-19 -22.9988 3.27248 -1.2424 -0.367686 35.2708 -2.43858 0.453537 -25.6844 -2.18486
